<svg width="333" height="74" viewBox="0 0 333 74" fill="none" xmlns="http://www.w3.org/2000/svg">
<path d="M12.3988 72H-0.00117185L29.5988 1.8H40.3988L69.9988 72H56.8988L49.5988 54.1H19.6988L12.3988 72ZM44.8988 42.6L34.6988 17.7L24.3988 42.6H44.8988ZM92.7832 45.8V72H80.4832V2C83.9499 2 87.7165 1.96666 91.7832 1.9C95.8499 1.83333 99.1832 1.8 101.783 1.8C118.717 1.8 127.183 9 127.183 23.4C127.183 28.7333 125.817 33.1333 123.083 36.6C120.35 39.9333 117.217 42.2 113.683 43.4L135.583 72H120.683L101.383 45.8H92.7832ZM101.183 13.3C100.85 13.3 100.317 13.3333 99.5832 13.4C98.8499 13.4 97.8165 13.4333 96.4832 13.5C95.1499 13.5 93.9165 13.5 92.7832 13.5V34.3H100.783C104.717 34.3 107.917 33.3333 110.383 31.4C112.917 29.4667 114.183 26.8333 114.183 23.5C114.183 16.7 109.85 13.3 101.183 13.3ZM189.374 45.8H172.474V34.3H200.874V63.3C197.874 66.3 193.874 68.7 188.874 70.5C183.874 72.2333 179.14 73.1 174.674 73.1C163.34 73.1 154.407 69.8333 147.874 63.3C141.407 56.8333 138.174 48.0667 138.174 37C138.174 26.7333 141.374 18.1667 147.774 11.3C154.174 4.36666 162.607 0.899997 173.074 0.899997C182.007 0.899997 189.507 3.26666 195.574 8L190.374 17.8C188.64 16.1333 186.34 14.8333 183.474 13.9C180.607 12.9 177.64 12.4 174.574 12.4C167.574 12.4 161.94 14.6 157.674 19C153.34 23.3333 151.174 29.3333 151.174 37C151.174 44.4 153.34 50.3667 157.674 54.9C161.94 59.3667 167.674 61.6 174.874 61.6C177.407 61.6 180.14 61.1333 183.074 60.2C186.007 59.2 188.107 58.0667 189.374 56.8V45.8ZM260.43 2H272.63V43C272.63 53.0667 269.997 60.6 264.73 65.6C259.397 70.6 252.763 73.1 244.83 73.1C235.83 73.1 228.597 70.4667 223.13 65.2C217.73 59.9333 215.03 52.3 215.03 42.3V2H227.33V39.7C227.33 46.6333 228.797 52.0333 231.73 55.9C234.73 59.7 239.097 61.6 244.83 61.6C255.23 61.6 260.43 54.5667 260.43 40.5V2ZM319.228 53.4C319.228 51.2667 318.428 49.4 316.828 47.8C315.294 46.1333 313.361 44.8 311.028 43.8C308.694 42.7333 306.128 41.5333 303.328 40.2C300.594 38.8 298.061 37.3667 295.728 35.9C293.394 34.3667 291.428 32.2667 289.828 29.6C288.294 26.8667 287.528 23.7333 287.528 20.2C287.528 14.8 289.494 10.2333 293.428 6.5C297.494 2.76666 302.794 0.899997 309.328 0.899997C318.194 0.899997 324.861 3.4 329.328 8.4L322.728 17.6C319.194 14.1333 315.061 12.4 310.328 12.4C307.328 12.4 304.928 13.1 303.128 14.5C301.394 15.9 300.528 17.7667 300.528 20.1C300.528 21.3 300.761 22.4333 301.228 23.5C301.694 24.5 302.194 25.3333 302.728 26C303.328 26.6667 304.261 27.4 305.528 28.2C306.861 29 307.894 29.6 308.628 30C309.428 30.3333 310.728 30.9 312.528 31.7C314.328 32.5 315.594 33.0667 316.328 33.4C319.261 34.7333 321.828 36.1333 324.028 37.6C326.494 39.0667 328.461 41.1667 329.928 43.9C331.461 46.6333 332.228 49.7667 332.228 53.3C332.228 59.1667 329.994 63.9333 325.528 67.6C321.061 71.2667 315.494 73.1 308.828 73.1C304.161 73.1 299.528 72.1333 294.928 70.2C290.528 68.2 287.528 65.5 285.928 62.1L292.928 53.7C294.794 56.1667 297.194 58.1 300.128 59.5C303.128 60.9 306.094 61.6 309.028 61.6C312.094 61.6 314.561 60.8667 316.428 59.4C318.294 57.9333 319.228 55.9333 319.228 53.4Z" fill="url(#paint0_linear_43_244)"/>
<defs>
<linearGradient id="paint0_linear_43_244" x1="-1.00001" y1="-19.3333" x2="345.639" y2="215.414" gradientUnits="userSpaceOnUse">
<stop offset="0.0342391" stop-color="#00457E"/>
<stop offset="0.723958" stop-color="#806491"/>
</linearGradient>
</defs>
</svg>
